<svg id="Layer_1" data-name="Layer 1" xmlns="http://www.w3.org/2000/svg" viewBox="0 0 341.68 106.65"><defs><style>.cls-1{fill:#fff;}.cls-2{fill:#f60;}</style></defs><path d="M234.05,274.7l25.87,57.83H247.58l-3.83-8.61H224.34l-3.83,8.61h-12.3Zm5.2,39.17-5.17-12-5.24,12Z" transform="translate(-129.35 -246.89)"/><path class="cls-1" d="M234.05,274.7l25.87,57.83H247.58l-3.83-8.61H224.34l-3.83,8.61h-12.3l25.84-57.83m-5.21,39.17h10.41l-5.17-12-5.24,12m5.2-61.22L225.83,271,200,328.86l-5.66,12.67h32l2.38-5.34,1.45-3.27h7.71l1.46,3.27,2.38,5.34h32.07l-5.67-12.67L242.26,271,234,252.65Z" transform="translate(-129.35 -246.89)"/><path class="cls-2" d="M234.05,274.7l25.87,57.83H247.58l-3.83-8.61H224.34l-3.83,8.61h-12.3l25.84-57.83m-5.21,39.17h10.41l-5.17-12-5.24,12m5.21-46.52-2.74,6.13-25.84,57.83-1.89,4.22h18.88l.79-1.78,3-6.83H241.8l3,6.83.79,1.78h18.92l-1.89-4.22-25.87-57.83-2.74-6.13Zm-.62,43.52.63-1.46.63,1.46Z" transform="translate(-129.35 -246.89)"/><path d="M309.4,306V274.56h11.43v58L286.66,300v31.46H275.27V273.51Z" transform="translate(-129.35 -246.89)"/><path class="cls-1" d="M275.27,273.51,309.4,306V274.56h11.43v58L286.66,300v31.46H275.27V273.51m-9-21v87.94h29.39V321l19,18.07,15.21,14.49v-88H300.4V285l-18.93-18-15.2-14.49Z" transform="translate(-129.35 -246.89)"/><path class="cls-2" d="M275.27,273.51,309.4,306V274.56h11.43v58L286.66,300v31.46H275.27V273.51m-3-7v67.94h17.39V307l29.1,27.73,5.07,4.82v-68H306.4V299l-29.07-27.69-5.06-4.83Z" transform="translate(-129.35 -246.89)"/><path d="M166.13,312.6l27.74-38.07v58h-11.4V309.05l-16.34,22.57-16.39-22.57v23.48H138.35v-58Z" transform="translate(-129.35 -246.89)"/><path class="cls-1" d="M193.87,274.53v58h-11.4V309.05l-16.34,22.57-16.39-22.57v23.48H138.35v-58l27.78,38.07,27.74-38.07m9-27.64-16.28,22.34-20.47,28.09-20.5-28.1-16.27-22.3v94.61h29.39v-4.76l.1.14,7.29,10,7.29-10.05.05-.08v4.71h29.4V246.89Z" transform="translate(-129.35 -246.89)"/><path class="cls-2" d="M193.87,274.53v58h-11.4V309.05l-16.34,22.57-16.39-22.57v23.48H138.35v-58l27.78,38.07,27.74-38.07m3-9.22-5.43,7.45-25.31,34.75-25.35-34.75-5.43-7.44v70.21h17.39V318.29l11,15.09,2.43,3.35,2.43-3.35,10.91-15.08v17.23h17.4V265.31Z" transform="translate(-129.35 -246.89)"/><path d="M366.91,275.09a28.92,28.92,0,0,1,20.35,8.4l-8.12,8.12a16.74,16.74,0,0,0-12.16-5.1,16.46,16.46,0,0,0-12.17,5.1,17.24,17.24,0,0,0,0,24.4A16.47,16.47,0,0,0,367,321.07a17.21,17.21,0,0,0,15.54-9.91H366.34V300.29h29.11c.81,10.6-2.66,18.28-8.26,23.84a27.84,27.84,0,0,1-20.32,8.4,28.75,28.75,0,0,1-28.72-28.72,27.89,27.89,0,0,1,8.44-20.36A27.47,27.47,0,0,1,366.87,275Z" transform="translate(-129.35 -246.89)"/><path class="cls-1" d="M366.87,275l0,.11a28.92,28.92,0,0,1,20.35,8.4l-8.12,8.12a16.74,16.74,0,0,0-12.16-5.1,16.46,16.46,0,0,0-12.17,5.1,17.24,17.24,0,0,0,0,24.4A16.47,16.47,0,0,0,367,321.07a17.21,17.21,0,0,0,15.54-9.91H366.34V300.29h29.11c.81,10.6-2.66,18.28-8.26,23.84a27.84,27.84,0,0,1-20.32,8.4,28.75,28.75,0,0,1-28.72-28.72,27.89,27.89,0,0,1,8.44-20.36A27.47,27.47,0,0,1,366.87,275m6.49-9h-6.49a36.28,36.28,0,0,0-26.69,11.15,36.74,36.74,0,0,0-11,26.68,37.74,37.74,0,0,0,64.38,26.71c8.07-8,11.83-18.69,10.9-30.91l-.64-8.32h-11.6l1.44-1.44,6.42-6.42-6.48-6.36a38,38,0,0,0-20-10.39l-.23-.7Z" transform="translate(-129.35 -246.89)"/><path class="cls-2" d="M366.87,275l0,.11a28.92,28.92,0,0,1,20.35,8.4l-8.12,8.12a16.74,16.74,0,0,0-12.16-5.1,16.46,16.46,0,0,0-12.17,5.1,17.24,17.24,0,0,0,0,24.4A16.47,16.47,0,0,0,367,321.07a17.21,17.21,0,0,0,15.54-9.91H366.34V300.29h29.11c.81,10.6-2.66,18.28-8.26,23.84a27.84,27.84,0,0,1-20.32,8.4,28.75,28.75,0,0,1-28.72-28.72,27.89,27.89,0,0,1,8.44-20.36A27.47,27.47,0,0,1,366.87,275m2.16-3h-2.16a30.46,30.46,0,0,0-22.42,9.37,31.73,31.73,0,0,0,0,44.91,30.5,30.5,0,0,0,22.4,9.27,30.85,30.85,0,0,0,22.43-9.27c6.88-6.82,9.95-15.64,9.14-26.19l-.21-2.78H363.34v16.87H376.7a13.88,13.88,0,0,1-9.72,3.91,13.43,13.43,0,0,1-10-4.17A14.22,14.22,0,1,1,377,293.75l2.13,2.09,2.1-2.11,8.12-8.12,2.14-2.14-2.16-2.12a32.13,32.13,0,0,0-20.27-9.19L369,272Z" transform="translate(-129.35 -246.89)"/><path d="M431.27,274.7l25.87,57.83H444.8L441,323.92h-19.4l-3.84,8.61h-12.3Zm5.2,39.17-5.17-12-5.23,12Z" transform="translate(-129.35 -246.89)"/><path class="cls-1" d="M431.27,274.7l25.87,57.83H444.8L441,323.92h-19.4l-3.84,8.61h-12.3l25.84-57.83m-5.2,39.17h10.4l-5.17-12-5.23,12m5.19-61.22L423.05,271l-25.84,57.83-5.66,12.67h32l2.38-5.34,1.45-3.27h7.71l1.46,3.27,2.38,5.34H471l-5.67-12.67L439.48,271l-8.22-18.38Z" transform="translate(-129.35 -246.89)"/><path class="cls-2" d="M431.27,274.7l25.87,57.83H444.8L441,323.92h-19.4l-3.84,8.61h-12.3l25.84-57.83m-5.2,39.17h10.4l-5.17-12-5.23,12m5.2-46.52-2.74,6.13-25.84,57.83-1.89,4.22h18.88l.79-1.78,3-6.83H439l3,6.83.79,1.78h18.92l-1.89-4.22L434,273.48l-2.74-6.13Zm-.62,43.52.63-1.46.63,1.46Z" transform="translate(-129.35 -246.89)"/></svg>