<svg id="Layer_1" data-name="Layer 1" xmlns="http://www.w3.org/2000/svg" viewBox="0 0 75.89 84.34"><defs><style>.cls-1{fill:#231f20;}</style></defs><g id="shopping_cart-24px" data-name="shopping cart-24px"><path id="Path_16" data-name="Path 16" class="cls-1" d="M227,410.63a5.89,5.89,0,0,1-5.14-3L211.3,388.53a2.92,2.92,0,0,1,2.56-4.34h43.47l2.76-5.88h9.61v5.88h-5.88l-10.57,22.3,4,7.16a5.89,5.89,0,0,1-2.31,8,6,6,0,0,1-2.83.73H216.82V416.5h35.25l-3.23-5.88Zm27.59-20.57H218.85l8.1,14.69h20.63Zm-2.47,35.25a5.88,5.88,0,1,1-5.87,5.88,5.87,5.87,0,0,1,5.87-5.88Zm-29.37,0a5.88,5.88,0,1,1-5.88,5.88,5.87,5.87,0,0,1,5.88-5.88Z" transform="translate(-193.81 -352.72)"/></g><g id="reply-24px"><path id="Path_29" data-name="Path 29" class="cls-1" d="M210.35,360.72v-8l-16.54,14,16.54,14v-8.2c11.81,0,20.08,3.2,26,10.2C234,372.72,226.89,362.72,210.35,360.72Z" transform="translate(-193.81 -352.72)"/></g></svg>